# xmcd
#
# Track frame offsets:
#	183
#	12803
#	25613
#	36255
#	48933
#	61545
#	70585
#	85798
#	96848
#	110635
#	121243
#	131413
#	142585
#	152245
#	163943
#	175770
#	187995
#	199873
#	210595
#	221415
#	233998
#	246238
#	257318
#	268380
#	279495
#	290425
#
# Disc length: 4010 seconds
#
# Revision: 2
# Processed by: cddbd v1.4b41PL2 Copyright (c) Steve Scherf et al.
# Submitted via: audiograbber 1.80
#
DISCID=660fa81a
DTITLE=Etta James - On Chess
DYEAR=1900
DGENRE=
TTITLE0=If I Can't Have You
TTITLE1=Spoonful
TTITLE2=Nobody But You
TTITLE3=Next Door To The Blues
TTITLE4=Somthing Got A Hold On Me
TTITLE5=(You Better) Do Right
TTITLE6=I'm Loving You More Everybody
TTITLE7=Breaking Point
TTITLE8=Mellow Fellow
TTITLE9=Steal Away
TTITLE10=Just A Little Bit
TTITLE11=Don't Lose Your Good Thing
TTITLE12=Watch Dog
TTITLE13=I'm Gonna Take What He's Got
TTITLE14=I'd Rather Go Blind
TTITLE15=The Love Of My Man
TTITLE16=It Hurts Me So Much
TTITLE17=Tell Mama
TTITLE18=My Mother-In-Law
TTITLE19=Security
TTITLE20=The Same Rope
TTITLE21=I Got You Babe
TTITLE22=I Worship The Ground You Walk On
TTITLE23=You Got It
TTITLE24=Fire
TTITLE25=Miss Pitiful
EXTD=Vogue VG 651 600 175
EXTT0=
EXTT1=
EXTT2=
EXTT3=
EXTT4=
EXTT5=
EXTT6=
EXTT7=
EXTT8=
EXTT9=
EXTT10=
EXTT11=
EXTT12=
EXTT13=
EXTT14=
EXTT15=
EXTT16=
EXTT17=
EXTT18=
EXTT19=
EXTT20=
EXTT21=
EXTT22=
EXTT23=
EXTT24=
EXTT25=
PLAYORDER=
